<mxfile host="app.diagrams.net" modified="2023-07-31T06:49:54.478Z" agent="Mozilla/5.0 (Windows NT 10.0; WOW64) AppleWebKit/537.36 (KHTML, like Gecko) Chrome/98.0.4758.102 Safari/537.36" etag="Xf6D_uirVNTo1f9yJS-K" version="21.3.8" type="github">
  <diagram name="第 1 页" id="PrDo3qpW8w90MHWFKIVd">
    <mxGraphModel dx="1376" dy="735" grid="1" gridSize="10" guides="1" tooltips="1" connect="1" arrows="1" fold="1" page="1" pageScale="1" pageWidth="827" pageHeight="1169" math="0" shadow="0">
      <root>
        <mxCell id="0" />
        <mxCell id="1" parent="0" />
        <mxCell id="2ELuZJYcW1GH4kSR9hie-2" value="开始" style="rounded=0;whiteSpace=wrap;html=1;" vertex="1" parent="1">
          <mxGeometry x="190" y="170" width="90" height="40" as="geometry" />
        </mxCell>
        <mxCell id="2ELuZJYcW1GH4kSR9hie-4" value="开始" style="rounded=0;whiteSpace=wrap;html=1;" vertex="1" parent="1">
          <mxGeometry x="200" y="180" width="90" height="40" as="geometry" />
        </mxCell>
      </root>
    </mxGraphModel>
  </diagram>
</mxfile>
